<?xml version="1.0" encoding="UTF-8"?>
<svg xmlns="http://www.w3.org/2000/svg" viewBox="0 0 240 240">
  <path d="M57.9,88.29V219.5c0,2.64,3.15,3.99,5.07,2.18l65.33-61.85c1.79-1.7,2.81-4.06,2.81-6.53V22.09c0-2.64-3.15-3.99-5.07-2.18L60.71,81.76c-1.79,1.7-2.81,4.06-2.81,6.53Zm60.4,26.55l-45.33,42.91c-1.91,1.81-5.07,.46-5.07-2.18v-14.83c0-2.47,1.02-4.83,2.81-6.53l45.33-42.91c1.91-1.81,5.07-.46,5.07,2.18v14.83c0,2.47-1.02,4.83-2.81,6.53Zm2.81-69.51v23.52c0,2.47-1.02,4.83-2.81,6.53l-45.33,42.91c-1.91,1.81-5.07,.46-5.07-2.18v-23.52c0-2.47,1.02-4.83,2.81-6.53l45.33-42.92c1.91-1.81,5.07-.46,5.07,2.18Zm-53.21,150.85v-16.03c0-2.44,.99-4.78,2.75-6.48l15.37-14.82c1.91-1.84,5.09-.49,5.09,2.16v16.03c0,2.44-.99,4.78-2.75,6.48l-15.37,14.82c-1.91,1.84-5.09,.49-5.09-2.16Z" opacity=".5" fill="#1482ff"/>
  <path d="M108.9,88.29V219.5c0,2.64,3.15,3.99,5.07,2.18l65.33-61.85c1.79-1.7,2.81-4.06,2.81-6.53V22.09c0-2.64-3.15-3.99-5.07-2.18l-65.33,61.85c-1.79,1.7-2.81,4.06-2.81,6.53Zm60.4,26.55l-45.33,42.91c-1.91,1.81-5.07,.46-5.07-2.18v-14.83c0-2.47,1.02-4.83,2.81-6.53l45.33-42.91c1.91-1.81,5.07-.46,5.07,2.18v14.83c0,2.47-1.02,4.83-2.81,6.53Zm2.81-69.51v23.52c0,2.47-1.02,4.83-2.81,6.53l-45.33,42.91c-1.91,1.81-5.07,.46-5.07-2.18v-23.52c0-2.47,1.02-4.83,2.81-6.53l45.33-42.92c1.91-1.81,5.07-.46,5.07,2.18Zm-53.21,150.85v-16.03c0-2.44,.99-4.78,2.75-6.48l15.37-14.82c1.91-1.84,5.09-.49,5.09,2.16v16.03c0,2.44-.99,4.78-2.75,6.48l-15.37,14.82c-1.91,1.84-5.09,.49-5.09-2.16Z" fill="#1482ff"/>
</svg>
