<?xml version="1.0" encoding="UTF-8"?>
<svg xmlns="http://www.w3.org/2000/svg" viewBox="0 0 775 240">
    <g>
        <path d="M57.9,87.5V218.71c0,2.64,3.15,3.99,5.07,2.18l65.33-61.85c1.79-1.7,2.81-4.06,2.81-6.53V21.29c0-2.64-3.15-3.99-5.07-2.18L60.71,80.96c-1.79,1.7-2.81,4.06-2.81,6.53Zm60.4,26.55l-45.33,42.91c-1.91,1.81-5.07,.46-5.07-2.18v-14.83c0-2.47,1.02-4.83,2.81-6.53l45.33-42.91c1.91-1.81,5.07-.46,5.07,2.18v14.83c0,2.47-1.02,4.83-2.81,6.53Zm2.81-69.51v23.52c0,2.47-1.02,4.83-2.81,6.53l-45.33,42.91c-1.91,1.81-5.07,.46-5.07-2.18v-23.52c0-2.47,1.02-4.83,2.81-6.53l45.33-42.92c1.91-1.81,5.07-.46,5.07,2.18Zm-53.21,150.85v-16.03c0-2.44,.99-4.78,2.75-6.48l15.37-14.82c1.91-1.84,5.09-.49,5.09,2.16v16.03c0,2.44-.99,4.78-2.75,6.48l-15.37,14.82c-1.91,1.84-5.09,.49-5.09-2.16Z"
              opacity=".5" fill="#1482ff"/>
        <path d="M108.9,87.5V218.71c0,2.64,3.15,3.99,5.07,2.18l65.33-61.85c1.79-1.7,2.81-4.06,2.81-6.53V21.29c0-2.64-3.15-3.99-5.07-2.18l-65.33,61.85c-1.79,1.7-2.81,4.06-2.81,6.53Zm60.4,26.55l-45.33,42.91c-1.91,1.81-5.07,.46-5.07-2.18v-14.83c0-2.47,1.02-4.83,2.81-6.53l45.33-42.91c1.91-1.81,5.07-.46,5.07,2.18v14.83c0,2.47-1.02,4.83-2.81,6.53Zm2.81-69.51v23.52c0,2.47-1.02,4.83-2.81,6.53l-45.33,42.91c-1.91,1.81-5.07,.46-5.07-2.18v-23.52c0-2.47,1.02-4.83,2.81-6.53l45.33-42.92c1.91-1.81,5.07-.46,5.07,2.18Zm-53.21,150.85v-16.03c0-2.44,.99-4.78,2.75-6.48l15.37-14.82c1.91-1.84,5.09-.49,5.09,2.16v16.03c0,2.44-.99,4.78-2.75,6.48l-15.37,14.82c-1.91,1.84-5.09,.49-5.09-2.16Z"
              fill="#1482ff"/>
    </g>
    <g>
        <path d="M256.71,111.22h32.09v19.06h-32.09v22.51h-22.29V80.64h58.58v19.06h-36.29v11.52Z" fill="#1482ff"/>
        <path d="M299.24,152.79V80.64h22.29v72.15h-22.29Z" fill="#1482ff"/>
        <path d="M405.52,126.19c-1.51,8.69-5.62,15.56-12.33,20.62-6.71,5.06-15.13,7.59-25.25,7.59-10.91,0-20.14-3.64-27.67-10.93-7.54-7.29-11.31-16.21-11.31-26.76s3.77-19.47,11.31-26.76c7.54-7.29,16.76-10.93,27.67-10.93,9.33,0,17.52,2.51,24.55,7.54,7.04,5.02,11.34,11.67,12.92,19.92l-22.29,4.31c-.93-3.73-2.71-6.64-5.33-8.72s-5.9-3.12-9.85-3.12c-4.67,0-8.62,1.71-11.85,5.12s-4.85,7.63-4.85,12.65,1.62,9.24,4.85,12.65,7.18,5.12,11.85,5.12c3.88,0,7.14-1.09,9.8-3.28s4.49-5.29,5.49-9.31l22.29,4.31Z"
              fill="#1482ff"/>
        <path d="M452.79,99.49v53.3h-22.29v-53.3h-22.29v-18.84h66.87v18.84h-22.29Z" fill="#1482ff"/>
        <path d="M544.69,89.96c7.57,7.29,11.36,16.21,11.36,26.76s-3.79,19.47-11.36,26.76c-7.57,7.29-16.82,10.93-27.73,10.93s-20.24-3.64-27.78-10.93c-7.54-7.29-11.31-16.21-11.31-26.76s3.77-19.47,11.31-26.76c7.54-7.29,16.8-10.93,27.78-10.93s20.15,3.64,27.73,10.93Zm-15.72,39.46c3.12-3.37,4.68-7.61,4.68-12.71s-1.56-9.33-4.68-12.71c-3.12-3.37-7.12-5.06-12.01-5.06s-8.9,1.69-12.06,5.06c-3.16,3.37-4.74,7.61-4.74,12.71s1.58,9.33,4.74,12.71c3.16,3.37,7.18,5.06,12.06,5.06s8.88-1.69,12.01-5.06Z"
              fill="#1482ff"/>
        <path d="M613.45,152.79l-3.45-9.8h-27.67l-3.45,9.8h-23.8l28.54-72.15h25.09l28.54,72.15h-23.8Zm-17.23-48.78l-7.32,20.57h14.54l-7.21-20.57Z"
              fill="#1482ff"/>
        <path d="M713.59,152.79h-18.2l-31.44-34.78v34.78h-22.29V80.64h18.31l31.44,36.18v-36.18h22.18v72.15Z"
              fill="#1482ff"/>
    </g>
</svg>
