<svg viewBox="0 0 24 24" fill="none" xmlns="http://www.w3.org/2000/svg">
    <path
        d="M5.70711 3.29289C5.31658 2.90237 4.68342 2.90237 4.29289 3.29289C3.90237 3.68342 3.90237 4.31658 4.29289 4.70711L5.70711 3.29289ZM13 12L13.7071 12.7071C14.0976 12.3166 14.0976 11.6834 13.7071 11.2929L13 12ZM4.29289 19.2929C3.90237 19.6834 3.90237 20.3166 4.29289 20.7071C4.68342 21.0976 5.31658 21.0976 5.70711 20.7071L4.29289 19.2929ZM4.29289 4.70711L12.2929 12.7071L13.7071 11.2929L5.70711 3.29289L4.29289 4.70711ZM12.2929 11.2929L4.29289 19.2929L5.70711 20.7071L13.7071 12.7071L12.2929 11.2929Z"
        fill="black" />
    <path
        d="M11.7071 3.29289C11.3166 2.90237 10.6834 2.90237 10.2929 3.29289C9.90237 3.68342 9.90237 4.31658 10.2929 4.70711L11.7071 3.29289ZM19 12L19.7071 12.7071C20.0976 12.3166 20.0976 11.6834 19.7071 11.2929L19 12ZM10.2929 19.2929C9.90237 19.6834 9.90237 20.3166 10.2929 20.7071C10.6834 21.0976 11.3166 21.0976 11.7071 20.7071L10.2929 19.2929ZM10.2929 4.70711L18.2929 12.7071L19.7071 11.2929L11.7071 3.29289L10.2929 4.70711ZM18.2929 11.2929L10.2929 19.2929L11.7071 20.7071L19.7071 12.7071L18.2929 11.2929Z"
        fill="black" />
</svg>