<svg viewBox="0 0 24 24">
    <path
        d="M18.2929 20.7071C18.6834 21.0976 19.3166 21.0976 19.7071 20.7071C20.0976 20.3166 20.0976 19.6834 19.7071 19.2929L18.2929 20.7071ZM11 12L10.2929 11.2929C9.90237 11.6834 9.90237 12.3166 10.2929 12.7071L11 12ZM19.7071 4.70711C20.0976 4.31658 20.0976 3.68342 19.7071 3.29289C19.3166 2.90237 18.6834 2.90237 18.2929 3.29289L19.7071 4.70711ZM19.7071 19.2929L11.7071 11.2929L10.2929 12.7071L18.2929 20.7071L19.7071 19.2929ZM11.7071 12.7071L19.7071 4.70711L18.2929 3.29289L10.2929 11.2929L11.7071 12.7071Z"
        fill="black" />
</svg>