<svg viewBox="0 0 24 24">
    <path d="M5.70711 3.29289C5.31658 2.90237 4.68342 2.90237 4.29289 3.29289C3.90237 3.68342 3.90237 4.31658 4.29289 4.70711L5.70711 3.29289ZM13 12L13.7071 12.7071C14.0976 12.3166 14.0976 11.6834 13.7071 11.2929L13 12ZM4.29289 19.2929C3.90237 19.6834 3.90237 20.3166 4.29289 20.7071C4.68342 21.0976 5.31658 21.0976 5.70711 20.7071L4.29289 19.2929ZM4.29289 4.70711L12.2929 12.7071L13.7071 11.2929L5.70711 3.29289L4.29289 4.70711ZM12.2929 11.2929L4.29289 19.2929L5.70711 20.7071L13.7071 12.7071L12.2929 11.2929Z" fill="black"/>
</svg>